<svg width="458" height="485" viewBox="0 0 458 485" fill="none" xmlns="http://www.w3.org/2000/svg">
<g clip-path="url(#clip0_33515_805)">
<path d="M152.3 107.1L149.5 112H146.8L145.9 113.4H148.7L142.6 123.8C141.3 126 142.2 128 144.7 128C146.5 128 148.4 126.7 150.3 124.9C150.3 128.7 155.6 129.4 158.9 125.4H159.6C161.4 125.4 164.2 124.3 165.8 122.5C165.6 122.1 165.1 121.6 164.7 121.5L164.5 121.7C163.1 123.2 161.5 123.9 159.9 123.9L162.7 119.1C164.5 116 162.8 113 160 113C157.7 113 155.9 113.9 154.1 116.9L152.6 119.5L151.4 121.6L151.2 121.8C149 124.3 146.9 126.3 145.6 126.3C144.9 126.3 144.6 125.8 145.3 124.7L151.8 113.5H154.3L155 112H152.5L155.3 107.1H152.3ZM159.8 114.9C160.8 115 161.2 116.2 160.2 117.9L158 121.6H157.9C156.9 121.6 156.1 122.4 156.1 123.4C156.1 123.8 156.2 124.1 156.4 124.4V124.5C155 126.9 151.5 126.5 153.3 123.4L155.6 119.5L157.1 117.1C158 115.5 159.1 114.9 159.8 114.9ZM181.8 107.1L179 112H176.3L175.4 113.4H178.2L172 123.8C170.7 126 171.6 128 174.1 128C175.3 128 176.6 127.4 178 126.4L177.2 127.7H180.2L184.8 119.8C189.4 114 191.5 114.8 190.2 117L186.3 123.7C185 125.9 185.9 127.9 188.4 127.9C190.2 127.9 192.2 126.5 194.1 124.7C194.2 126.6 195.8 127.9 198.2 127.9C201.6 127.9 205 125.3 207.5 122.4C207.3 122 206.8 121.5 206.4 121.4L206.2 121.6C204 124.1 201.2 126.1 199.1 126.1C197.2 126.1 196.1 125 197.5 122.5L197.8 122C199.7 122.8 203.4 122.4 205.7 118.6L206.1 117.9C207.7 115.1 206.2 113.1 203.7 113.1C201.3 113.1 199.3 114.4 198 116.5L195.1 121.5L194.9 121.7C192.7 124.2 190.6 126.2 189.3 126.2C188.6 126.2 188.3 125.7 188.9 124.6L193.3 117.1C194.6 114.8 193.4 113.2 191.7 113.2C190.4 113.2 189 113.9 187.5 115.5L192.3 107.2H189.3L180.9 121.6L180.7 121.8C178.5 124.3 176.4 126.3 175.1 126.3C174.4 126.3 174.1 125.8 174.8 124.7L181.3 113.5H183.8L184.7 112.1H182.2L185 107.2L181.8 107.1ZM203.1 115.3C204.1 115.2 204.6 116.2 203.6 117.9L203.2 118.6C201.8 121 199.8 121 198.7 120.6L200.6 117.2C201.3 116 202.3 115.4 203.1 115.3ZM247.4 109.9C245.7 111.4 245.5 113.1 246.6 114.5L246.9 114.8C245.6 116.7 243.8 119.2 241.8 121.5L241.6 121.7C240.2 123.2 238.6 123.9 237 123.9L239.8 119.1C241.6 116 239.9 113 237.1 113C234.8 113 233 113.9 231.2 116.9L229.7 119.5L228.5 121.6L228.3 121.8C225.8 124.6 223.7 126.5 221.3 127.5L228.1 116.1H226.3C226.3 114.9 225 113.2 223.1 113.2C221.5 113.2 219.2 114.5 217.9 116.6L213.7 123.8C212.4 126 213.3 128 215.8 128C216.6 128 217.7 127.6 218.7 127L217.9 128.4C213.8 129.6 211.3 131.3 211.3 133.5C211.3 136.4 215.7 137 217.9 133.3L220.2 129.4C222.6 128.7 225 127.3 227.4 124.9C227.4 128.7 232.7 129.5 236 125.4H236.7C238.5 125.4 241.3 124.3 242.9 122.5C244.3 120.8 245.5 119.3 247.9 116.1L248.3 116.6C248.7 117.1 248.8 117.7 248.5 118.3L245.3 123.8C244 126 244.9 128 247.4 128C248.9 128 250.6 127 252.2 125.6C252.1 127 253.1 128 254.8 128C255.6 128 256.7 127.6 257.7 127L256.9 128.4C252.8 129.6 250.3 131.3 250.3 133.5C250.3 136.4 254.7 137 256.9 133.3L259.2 129.4C261.7 128.6 264.1 127.2 266.6 124.8C266.7 126.7 268.3 128 270.7 128C273.2 128 275.6 126.6 277.7 124.8C277.6 128.7 283 129.5 286.3 125.4H287C287.9 125.4 289.2 125.1 290.4 124.5C289.6 126.6 290.3 128 292.1 128C293.8 128 295.6 126.5 297.1 125.1C296.8 126.7 297.8 128 299.7 128C302.2 128 305.1 125.4 307.6 122.5C309.3 120.5 310.8 118.5 311.9 117.1C310.7 120.2 311.3 125.8 308.5 125.8C307.5 125.8 307.1 124.7 307.1 124.7L305.2 125.7C305.2 125.7 305.8 128.1 308.5 128.1C308.8 128.1 309.1 128.1 309.3 128H309.4C312.5 127.6 315.5 125.2 317.8 122.6C317.6 122.1 317.1 121.7 316.7 121.6L316.5 121.8C315.4 123 314.2 124.1 312.9 125C313.9 122.2 313.7 117.8 315.5 114L313.2 112.8C312 114.5 309.2 118.4 306.5 121.5L306.3 121.7C304.1 124.2 302 126.2 300.7 126.2C300 126.2 299.7 125.7 300.4 124.6L306.8 113.4H303.8L298.4 122.7C296.1 124.8 294.3 125.9 293.8 125.7C293 125.4 293.8 124.3 294.2 123.6L300.1 113.4H297.1L292.4 121.5L292.2 121.7C290.8 123.2 289.2 123.9 287.6 123.9L290.4 119.1C292.2 116 290.5 113 287.7 113C285.4 113 283.6 113.9 281.8 116.9L280.3 119.5L279.1 121.6L278.9 121.8C276.7 124.3 273.9 126.3 271.8 126.3C269.9 126.3 268.8 125.2 270.2 122.7L270.5 122.2C272.4 123 276.1 122.6 278.4 118.8L278.8 118.1C280.4 115.3 278.9 113.3 276.4 113.3C274 113.3 272 114.6 270.7 116.7L267.8 121.7L267.6 121.9C265.1 124.7 263 126.6 260.6 127.6L267.4 116.2H265.6C265.6 115 264.3 113.3 262.4 113.3C260.8 113.3 258.5 114.6 257.2 116.7L254.3 121.6L254.1 121.8C251.9 124.3 249.8 126.3 248.5 126.3C247.8 126.3 247.5 125.8 248.2 124.7L251.2 119.5C252.2 117.7 251.8 116.6 250.8 115.5L249.1 113.5C248.7 113 248.7 112.4 249.3 111.8L247.4 109.9ZM237.1 114.9C238.1 115 238.6 116.2 237.5 117.9L235.3 121.6H235.2C234.2 121.6 233.4 122.4 233.4 123.4C233.4 123.8 233.5 124.1 233.7 124.4V124.5C232.3 126.9 228.8 126.5 230.6 123.4L232.9 119.5L234.4 117.1C235.3 115.5 236.3 114.9 237.1 114.9ZM287.3 114.9C288.3 115 288.8 116.2 287.7 117.9L285.5 121.6H285.4C284.4 121.6 283.6 122.4 283.6 123.4C283.6 123.8 283.7 124.1 283.9 124.4V124.5C282.5 126.9 279 126.5 280.8 123.4L283.1 119.5L284.6 117.1C285.4 115.5 286.5 114.9 287.3 114.9ZM275.6 115.3C276.6 115.2 277.1 116.2 276.1 117.9L275.7 118.6C274.2 121 272.3 121 271.2 120.6L273.1 117.2C273.8 116 274.8 115.4 275.6 115.3ZM223.2 115.5C224.2 115.5 224.9 116.4 224 117.9L221.7 121.9C219.9 124.8 218 126.2 216.8 126.2C216.1 126.2 215.8 125.7 216.5 124.6L220.7 117.3C221.4 116.1 222.4 115.5 223.2 115.5ZM262.1 115.5C263.1 115.5 263.8 116.4 262.9 117.9L260.6 121.9C258.8 124.8 256.9 126.2 255.7 126.2C255 126.2 254.7 125.7 255.4 124.6L259.6 117.3C260.3 116.1 261.3 115.5 262.1 115.5ZM216.8 130.4L215.4 132.8C214.8 133.9 213.7 133.7 213.7 132.9C213.7 132.2 214.5 131.3 216.8 130.4ZM255.7 130.4L254.3 132.8C253.7 133.9 252.6 133.7 252.6 132.9C252.7 132.2 253.4 131.3 255.7 130.4ZM101 118.8H129.9V120.7H101V118.8ZM328.1 118.8H357V120.7H328.1V118.8Z" fill="#766458"/>
<path d="M322.7 88.4V96.1H301.9V51.4H322.7V59H309.5V69.8H320V77.5H309.5V88.4H322.7ZM289.9 51.4H297.5V96.1H289.9V74.1L286.9 85.5H279.5L276.5 74.1V96.1H268.9V51.4H276.5L283.3 73L289.9 51.4ZM258 59H252.5V88.3H258V59ZM261 51.4C263.5 51.4 265.7 53.5 265.7 56.1V91.4C265.7 94 263.5 96.1 261 96.1H249.6C247 96.1 244.9 93.9 244.9 91.4V56.1C244.9 53.5 247 51.4 249.6 51.4H261ZM233 79.6L240.7 77.8V91.4C240.7 94 238.5 96.1 236 96.1H224.6C222 96.1 219.9 93.9 219.9 91.4V56.1C219.9 53.5 222 51.4 224.6 51.4H236C238.5 51.4 240.7 53.5 240.7 56.1V65.2L233 67V59H227.5V88.3H233V79.6ZM216.2 88.4V96.1H198V51.4H205.6V88.4H216.2ZM194.8 88.4V96.1H174V51.4H194.8V59H181.6V69.8H192.1V77.5H181.6V88.4H194.8ZM162.6 51.4H170.3L169 96.1H154.5L152.5 77.6L150.5 96.1H136L135 51.4H142.6L143.2 88.4H144L148.8 51.4H156.4L161.3 88.4H162.1L162.6 51.4Z" fill="#81B3D3"/>
<path d="M380.4 265.7L405.8 191.7H431L456.7 265.7H436.5L432.8 252.3H404.2L400.4 265.7H380.4ZM416.1 213.6L408.6 238.1H428.7L421.2 213.6C420.8 212.4 420.4 211.2 420 210C419.7 208.7 419.4 207.5 419.2 206.2C419 205.7 418.9 205.3 418.9 204.9C418.8 204.4 418.7 204 418.7 203.6C418.6 204 418.5 204.4 418.4 204.9C418.3 205.3 418.2 205.7 418.2 206.2C418.1 206.4 418.1 206.5 418.1 206.7C418.1 206.8 418.1 206.9 418 207C417.8 208.1 417.5 209.3 417.2 210.4C416.7 211.4 416.4 212.5 416.1 213.6ZM298.4 265.7V191.7H317.9L345.8 229.7C346.5 230.8 347.2 232 347.8 233.2C348.5 234.4 349.2 235.6 349.8 236.8L351.2 239.8C351.7 240.8 352.1 241.8 352.6 242.7C352.5 241.9 352.4 241.1 352.3 240.3C352.2 239.5 352.1 238.7 352.1 237.9C351.9 236.3 351.8 234.7 351.8 233.1C351.7 231.4 351.7 229.8 351.7 228.1V191.8H371.1V265.8H351.7L323.6 227.6C322.8 226.7 322.1 225.6 321.4 224.3C320.7 223 320 221.6 319.4 220.2C319 219.2 318.5 218.3 318 217.3C317.6 216.4 317.3 215.4 316.8 214.5C317.2 216.9 317.5 219.3 317.7 221.8C317.9 224.3 318 226.8 318 229.2V265.7H298.4ZM210.4 210.8C214 204.2 218.9 199.2 225.3 195.7C231.7 192.2 238.3 190.5 245.2 190.5C246.1 190.5 247.1 190.5 248 190.6C249 190.7 250 190.8 250.9 190.8C253.8 191.2 256.6 191.9 259.4 192.9C262.3 193.9 265 195.2 267.5 196.8C273 200.4 277.3 205.1 280.3 211.1C283.3 217 284.8 223.1 284.8 229.6C284.8 230.4 284.8 231.2 284.7 232C284.7 232.8 284.6 233.5 284.5 234.3C284.3 236 284 237.6 283.6 239.2C283.2 240.8 282.7 242.3 282.1 243.8C278.8 251.3 273.8 257.2 266.9 261.3C260 265.4 252.8 267.5 245.2 267.5C244.7 267.5 244.1 267.5 243.6 267.4H242.1C239.4 267.2 236.8 266.7 234.2 266C231.6 265.3 229.1 264.3 226.8 263.1C220.3 259.7 215.2 254.9 211.5 248.6C207.8 242.3 205.9 235.7 205.9 228.9C205.9 227.9 205.9 226.9 206 225.9C206.1 224.9 206.2 223.8 206.5 222.8C206.9 220.8 207.4 218.7 208.1 216.8C208.5 214.6 209.4 212.7 210.4 210.8ZM263.2 237.4C263.4 236.6 263.6 235.8 263.8 235C264 234.1 264.2 233.3 264.3 232.4C264.4 231.9 264.4 231.3 264.4 230.8C264.5 230.3 264.5 229.8 264.5 229.3C264.5 228.8 264.5 228.4 264.4 227.9V226.5C264 223.2 263 220 261.4 216.9C259.8 213.8 257.5 211.4 254.7 209.7C253.9 209.3 253.2 209 252.4 208.7C251.6 208.4 250.9 208.1 250.1 207.9C249.3 207.7 248.6 207.6 247.8 207.6C247 207.4 246.3 207.4 245.5 207.4C241.6 207.4 237.9 208.6 234.6 211.1C231.3 213.6 228.9 216.9 227.6 221L227.4 221.5V222C227.2 222.7 227 223.5 226.8 224.2C226.6 224.9 226.5 225.6 226.3 226.4L226.1 228V230.4C226.1 230.6 226.1 230.9 226.2 231.2C226.4 235.3 227.7 239.2 229.9 242.9C232.2 246.5 235.4 248.9 239.4 250.1L240.8 250.6C241.3 250.7 241.8 250.8 242.3 250.8L243.7 251H245.1C249.2 251 252.9 249.8 256.1 247.4C259.4 244.8 261.8 241.5 263.2 237.4ZM181.1 258.8C177.5 261.3 173.5 263 169.3 263.9C165.1 264.8 160.7 265.4 156.4 265.6C155.2 265.7 153.9 265.7 152.7 265.7H128.9V191.7H154C155.2 191.7 156.4 191.7 157.6 191.8C161.8 192 165.9 192.6 169.9 193.5C174 194.4 177.8 196.2 181.2 198.6C185.5 201.6 188.9 205.6 191.3 210.6C193.7 215.6 195.1 220.7 195.4 225.9C195.5 226.4 195.5 226.8 195.5 227.3V230.2C195.3 235.7 194 241 191.6 246.1C189.2 251.2 185.6 255.5 181.1 258.8ZM148.7 249.1C148.9 249.1 149.2 249.1 149.4 249.2H150.2C150.5 249.2 150.8 249.2 151 249.3H154.1C155 249.2 155.8 249.1 156.5 249.1C158.5 248.9 160.5 248.6 162.4 248.1C164.3 247.6 166.1 246.7 167.6 245.7C170.1 243.9 171.9 241.5 173.1 238.5C174.3 235.4 175 232.2 175 228.9V228C175 227.7 175 227.4 174.9 227.1C174.7 224.2 174 221.3 172.8 218.6C171.6 215.8 169.9 213.6 167.7 212C166.1 210.7 164.2 209.8 162.2 209.3C160.2 208.8 158.2 208.6 156.2 208.5H148.7V249.1ZM68.8 265.7V191.7H114.2V207.8H88.6V220.8H112.6V236.6H88.6V249.1H114.1V265.7H68.8ZM9.4 241.9C9.5 242 9.5 242.1 9.5 242.1C9.6 242.1 9.7 242.1 9.7 242.2C11.8 244.5 14.2 246.7 16.8 248.7C19.4 250.6 22.5 251.7 25.9 251.8C26 251.8 26.1 251.8 26.1 251.9H26.4C26.5 251.9 26.6 251.9 26.6 252H27.9C28.3 251.9 28.6 251.8 28.9 251.8C30.1 251.6 31.3 251.1 32.4 250.4C33.6 249.7 34.5 248.9 35.1 247.8L35.3 247.3L35.5 246.8C35.7 246.3 35.8 245.8 35.8 245.3C35.9 244.8 35.9 244.4 35.9 244C35.9 241.9 35 240.2 33.1 238.8C31.4 237.4 29.4 236.2 27.3 235.4C26.5 235.1 25.7 234.9 24.9 234.7C24.2 234.5 23.4 234.3 22.7 234.1H22.5C22.4 234 22.3 234 22.3 234C18.5 233.1 14.9 231.6 11.6 229.6C8.3 227.5 6 224.5 4.7 220.7C4.5 219.9 4.2 219.1 4 218.3C3.8 217.4 3.7 216.5 3.7 215.6C3.7 215.5 3.7 215.2 3.7 215V212.2C3.8 211.6 3.9 211 4 210.3C4.2 208.7 4.6 207.2 5.2 205.7C5.7 204.2 6.4 202.8 7.3 201.5C9.8 197.4 13 194.5 16.8 192.7C20.7 190.9 24.9 190 29.1 190C30.1 190 31.1 190.1 32.1 190.2C33.2 190.3 34.3 190.4 35.4 190.5C38.2 191 41 191.8 43.6 192.8C46.4 193.9 48.9 195.2 51.3 196.6L44.9 210.9C42.8 209.4 40.6 208 38.3 206.8C36 205.6 33.5 205.1 30.8 205.1H29.9C28.1 205.3 26.5 206.1 24.9 207.5C23.4 208.8 22.6 210.2 22.6 211.8V212.5C22.7 212.7 22.8 213 22.9 213.2C23.1 213.7 23.3 214.2 23.7 214.7C24.1 215.2 24.5 215.6 25 216C25.9 216.7 27.1 217.4 28.7 218C30.3 218.5 32 219.1 33.8 219.6C35.3 220 36.7 220.4 38.1 220.8C39.5 221.1 40.7 221.4 41.6 221.7C45.9 223.2 49.2 225.8 51.4 229.5C53.6 233.1 54.7 236.9 54.8 240.9V241.5C54.8 242 54.8 242.4 54.7 242.9V244.2C54.2 248.2 52.9 252.1 50.8 255.7C48.7 259.3 45.9 262.1 42.3 264.1C41 264.7 39.6 265.3 38.2 265.7C36.8 266.1 35.4 266.4 34 266.7C32.9 266.9 31.7 267.1 30.5 267.2C29.4 267.4 28.3 267.4 27.1 267.4H25.7C21.1 267.2 16.5 266.2 12 264.4C7.5 262.5 3.5 259.9 0 256.7L9.4 241.9ZM351 389C351 388.7 351.1 388.4 351.2 388.1C351.3 387.8 351.5 387.5 351.7 387.3C351.9 387.1 352.2 386.9 352.5 386.7C352.8 386.6 353.2 386.5 353.6 386.5C354.1 386.5 354.5 386.6 354.9 386.8C355.3 387 355.7 387.2 356 387.5C356.2 387.8 356.4 388.1 356.6 388.5C356.7 388.9 356.8 389.3 356.8 389.8C356.8 390.7 356.6 391.4 356.3 392.2C356 392.9 355.6 393.6 355 394.1C354.7 394.4 354.5 394.6 354.2 394.8C353.9 395 353.6 395.2 353.3 395.3C353 395.4 352.8 395.6 352.6 395.7C352.5 395.8 352.4 395.8 352.2 395.9L350.8 393.9C351 393.8 351.3 393.7 351.6 393.5C351.9 393.4 352.2 393.2 352.5 393C352.8 392.8 353 392.5 353.2 392.2C353.4 391.9 353.5 391.6 353.5 391.2C352.9 391.2 352.3 391 351.8 390.6C351.2 390.3 351 389.8 351 389ZM358.8 389C358.8 388.7 358.9 388.4 359 388.1C359.1 387.8 359.3 387.5 359.5 387.3C359.7 387.1 360 386.9 360.3 386.7C360.6 386.6 361 386.5 361.4 386.5C361.9 386.5 362.3 386.6 362.7 386.8C363.1 387 363.5 387.2 363.8 387.5C364 387.8 364.2 388.1 364.4 388.5C364.5 388.9 364.6 389.3 364.6 389.8C364.6 390.6 364.5 391.4 364.1 392.2C363.8 392.9 363.4 393.6 362.8 394.1C362.5 394.4 362.3 394.6 362 394.8C361.7 395 361.4 395.2 361.1 395.3C360.8 395.4 360.6 395.6 360.4 395.7C360.3 395.8 360.2 395.8 360 395.9L358.7 393.9C358.9 393.8 359.2 393.7 359.5 393.5C359.8 393.4 360.1 393.2 360.4 393C360.7 392.8 360.9 392.5 361.1 392.2C361.3 391.9 361.4 391.6 361.4 391.2C360.8 391.2 360.2 391 359.7 390.6C359 390.3 358.8 389.8 358.8 389ZM94.2 330.3C94.2 330.6 94.1 330.9 94 331.2C93.9 331.5 93.7 331.8 93.5 332C93 332.5 92.3 332.8 91.6 332.8C91.2 332.8 90.7 332.7 90.3 332.5C89.9 332.3 89.5 332.1 89.2 331.8C88.9 331.5 88.7 331.1 88.6 330.8C88.5 330.4 88.4 330 88.4 329.5C88.4 328.6 88.6 327.9 88.9 327.1C89.2 326.4 89.6 325.7 90.2 325.2C90.5 324.9 90.7 324.7 91 324.5C91.3 324.3 91.6 324.1 91.9 324C92.2 323.9 92.4 323.7 92.6 323.6C92.8 323.5 92.9 323.5 93 323.4L94.3 325.4C94 325.5 93.7 325.6 93.5 325.8C93.2 325.9 92.9 326.1 92.6 326.3C92.3 326.5 92.1 326.8 91.9 327.1C91.7 327.4 91.6 327.7 91.6 328.1C92.3 328.1 92.8 328.3 93.3 328.7C94 329.1 94.2 329.6 94.2 330.3ZM86.4 330.3C86.4 330.9 86.2 331.5 85.7 332C85.5 332.2 85.2 332.4 84.9 332.6C84.6 332.7 84.2 332.8 83.8 332.8C83.4 332.8 82.9 332.7 82.5 332.5C82.1 332.3 81.7 332.1 81.4 331.8C81.1 331.5 80.9 331.1 80.8 330.8C80.7 330.4 80.6 330 80.6 329.5C80.6 328.6 80.8 327.9 81.1 327.1C81.4 326.4 81.8 325.7 82.4 325.2C82.6 325 82.9 324.7 83.2 324.5C83.5 324.3 83.8 324.1 84.1 324C84.4 323.9 84.6 323.7 84.8 323.6C85 323.5 85.1 323.5 85.2 323.4L86.5 325.4C86.3 325.5 86 325.6 85.7 325.8C85.4 325.9 85.1 326.1 84.8 326.3C84.5 326.5 84.3 326.8 84.1 327.1C83.9 327.4 83.8 327.7 83.8 328.1C84.5 328.1 85 328.3 85.5 328.7C86.1 329.1 86.4 329.6 86.4 330.3ZM331.7 387.2H335.5L347.3 366.6H343.5L331.7 387.2ZM331.6 388.7C330.4 388.7 329.4 389.7 329.4 390.9C329.4 392.1 330.3 393.1 331.6 393.1C332.8 393.1 333.8 392.2 333.8 390.9C333.8 389.6 332.8 388.7 331.6 388.7ZM305.2 383.2L306.3 381.3C310.7 375.2 313.6 376.9 312.3 379.2L310.5 382.3C309.4 384.2 306 385.6 305.2 383.2ZM330.3 386.1C330.1 385.5 329.4 384.9 328.9 384.8L328.6 385.1C327.3 386.7 325.7 388 324.1 389.2C325.3 385.6 325 380.1 327.4 375.2L324.6 373.7C323 375.8 319.6 380.8 316.2 384.8L315.9 385.1C313.2 388.3 310.5 390.8 308.9 390.8C308.1 390.8 307.3 390 307.3 388.3V386.7C310 387 312.8 385.3 314.5 382.2L315.5 380.5C319 374.5 313.3 372.5 309.4 376L314.8 366.7H311L300.2 385.4C300 385.2 299.8 385.1 299.5 384.9L299.2 385.2C296.5 388.4 293 390.9 290.3 390.9C288 390.9 286.6 389.4 288.3 386.4L292.2 379.6C294.4 375.9 298.2 376.5 296 380.4L295.5 381.3H298.6L299.1 380.4C301.1 376.9 299.2 374.3 296.1 374.3C293 374.3 290.6 375.9 289 378.7L285.3 385.1C285.2 385.1 285.1 385 285.1 385L284.8 385.3C282.1 388.5 279.4 391 277.8 391C277 391 276.5 390.4 277.4 388.9L285.5 374.8H281.7L275 386.5C272.1 389.1 269.9 390.6 269.2 390.2C268.3 389.8 269.2 388.4 269.7 387.6L277.1 374.7H273.3L266 387.4C265.2 388.1 263.6 388.8 262.8 389.3C264 385.7 263.7 380.2 266.1 375.3L263.3 373.8C261.7 375.9 253 387.5 249.6 391.5C249.9 392 250.5 392.4 251 392.8C253.1 390.3 260.3 381.1 261.7 379.3C260.2 383.2 261 390.3 257.4 390.3C256.1 390.3 255.6 388.9 255.6 388.9L253.2 390.1C253.2 390.1 253.9 393.1 257.3 393.1C257.7 393.1 258 393.1 258.4 393H258.5C260.4 392.7 263.1 391.9 264.9 390.6C264.9 392.1 265.8 393.1 267.4 393.1C269.5 393.1 271.8 391.2 273.6 389.5C273.2 391.5 274.4 393.1 276.8 393.1C279.1 393.1 281.8 391.2 284.2 388.7C284.2 391.2 286.2 393.1 289.3 393.1C292.4 393.1 295.4 391.4 298 389.1L295.9 392.8H299.7L304 385.3V388.3C304 391.5 304.6 393.2 307.7 393.2C310.8 393.2 314.4 389.9 317.5 386.2C319.6 383.7 321.5 381.1 322.9 379.3C321.4 383.2 322.2 390.3 318.6 390.3C317.3 390.3 316.8 388.9 316.8 388.9L314.4 390.1C314.4 390.1 315.1 393.1 318.5 393.1C318.9 393.1 319.2 393.1 319.6 393H319.7C323.7 392.5 327.5 389.4 330.3 386.1ZM215.7 385H215.5C214.3 385 213.3 386 213.3 387.3C213.3 387.8 213.4 388.2 213.7 388.6V388.7C211.9 391.7 207.6 391.2 209.8 387.2L212.7 382.2L214.5 379.1C217.2 374.6 220.8 376.4 218.5 380.3L215.7 385ZM190.3 399.2C189.5 400.6 188.2 400.4 188.2 399.4C188.2 398.4 189.1 397.3 192 396.2L190.3 399.2ZM161.5 385.4C159.2 389 157 390.7 155.4 390.7C154.6 390.7 154.1 390.1 155 388.6L160.3 379.4C162.3 375.9 166.4 376.8 164.5 380.2L161.5 385.4ZM149.5 370.7C150.6 368.8 151.9 367.9 152.9 367.9C154.3 367.9 155 368.8 155 370.2C155 373.7 150.6 381 144.8 380.1H144L149.5 370.7ZM242.3 384.8L242 385.1C239.3 388.3 236.6 390.8 235 390.8C234.2 390.8 233.7 390.2 234.6 388.7L240 379.1C241.6 376.2 240.1 374.2 238 374.2C236.4 374.2 234.7 375.1 232.8 377L234.2 374.5H230.4L224.3 385C224.1 384.9 224 384.8 223.8 384.7L223.5 385C221.8 386.9 219.7 387.8 217.8 387.8L221.4 381.7C223.7 377.7 221.6 374 218 374C215.1 374 212.8 375.2 210.7 378.9L208.8 382.1L207.2 384.9C207.1 384.8 207 384.8 206.9 384.7L206.6 385C203.5 388.6 200.8 390.9 197.8 392.2L208.2 374.5H204.4L197.7 386.1C194.8 388.8 192.5 390.3 191.8 390C190.9 389.6 191.8 388.2 192.3 387.4L199.7 374.5H195.9L189.9 384.9C189.8 384.8 189.7 384.8 189.6 384.7L189.3 385C186.6 388.2 183.9 390.7 182.3 390.7C181.5 390.7 181 390.1 181.9 388.6L187.3 379C188.9 376.1 187.4 374.1 185.3 374.1C183.7 374.1 182 375 180.1 376.9L181.5 374.4H177.7L171.7 384.8C171.6 384.7 171.5 384.7 171.3 384.6L171 384.9C168.3 388.1 165.6 390.6 164 390.6C163.2 390.6 162.7 390 163.6 388.5L169.7 377.8H167.6C167.7 376.2 166.1 374 163.6 374C161.6 374 158.7 375.6 157.1 378.4L153.2 385.1C152.9 384.9 152.6 384.7 152.4 384.6L152.1 384.9C149.4 388.1 147.3 390.6 143.5 390.6C140.9 390.6 139.4 388 141.6 384.2L142.7 382.3C143.4 382.4 144.1 382.5 144.8 382.5C148.8 382.5 153.4 380.4 156.4 375.2C157.5 373.3 157.9 371.6 157.9 370.1C157.9 366.7 155.7 364.5 152.9 364.5C150.8 364.5 148.4 366 146.7 368.9L140.8 379C138.6 377.8 137.4 375.7 137.4 373.6C137.4 371.9 138.2 370.1 139.8 368.8L138.6 366.6C135.9 368.5 134.7 371.1 134.7 373.6C134.7 376.6 136.4 379.5 139.5 381.1L138.4 383.1C135.7 387.7 137.3 392.8 142.6 392.8C146.8 392.8 148.7 390.9 151.3 388.4C150.5 390.8 151.7 392.8 154.3 392.8C155.8 392.8 157.7 391.8 159.5 390.3C159.7 391.8 160.8 392.8 162.8 392.8C164.6 392.8 166.6 391.7 168.5 390L167.1 392.4H170.9L176.7 382.3C182.5 375.1 185.1 376 183.4 378.8L178.5 387.3C176.9 390.1 178 392.7 181.1 392.7C183.1 392.7 185.4 391.3 187.5 389.3C187 391.4 188 392.7 189.9 392.7C191.7 392.7 193.8 391.2 195.5 389.7L193.4 393.3C188.3 394.8 185.1 396.9 185.1 399.8C185.1 403.4 190.7 404.2 193.4 399.5L196.3 394.5C199.5 393.5 202.6 391.5 205.8 388.3C205.3 393.6 212.3 394.8 216.5 389.4H217.3C218.7 389.4 220.5 388.9 222.2 387.9L219.7 392.3H223.5L229.3 382.2C235.1 375 237.7 375.9 236 378.7L231.1 387.2C229.5 390 230.6 392.6 233.7 392.6C236.8 392.6 240.4 389.3 243.5 385.6C243.4 385.6 242.8 385 242.3 384.8ZM360.9 349.2C358.6 352.9 356.3 354.7 354.7 354.7C353.9 354.7 353.4 354.1 354.3 352.6L359.6 343.4C361.6 339.9 365.7 340.8 363.8 344.2L360.9 349.2ZM324.7 349.4C322.4 353 320.2 354.7 318.6 354.7C317.8 354.7 317.3 354.1 318.2 352.6L323.5 343.4C325.5 339.9 329.6 340.8 327.7 344.2L324.7 349.4ZM284.8 363.2C284 364.6 282.7 364.4 282.7 363.4C282.7 362.4 283.6 361.3 286.5 360.2L284.8 363.2ZM292.8 334.7C293.9 332.8 295.2 331.9 296.2 331.9C302.2 331.9 297.7 346.3 288.1 344.1H287.3L292.8 334.7ZM370.5 348.8L370.2 349.1C367.5 352.3 364.8 354.8 363.2 354.8C362.4 354.8 361.9 354.2 362.8 352.7L375.6 330.6H371.8L366.2 340.2C365.5 339.1 364.3 338.2 362.7 338.2C360.7 338.2 357.8 339.8 356.2 342.6L352.5 349C352.4 349 352.3 348.9 352.3 348.9L352 349.2C349.3 352.4 347 354.9 345.3 354.9C344.5 354.9 344 354.3 344.9 352.8L350.4 343.2C352 340.3 350.5 338.3 348.4 338.3C346.8 338.3 345.1 339.2 343.2 341.1L344.6 338.6H340.8L334.8 349C334.7 348.9 334.6 348.9 334.4 348.8L334.1 349.1C331.4 352.3 328.7 354.8 327.1 354.8C326.3 354.8 325.8 354.2 326.7 352.7L332.8 342H330.7C330.8 340.4 329.2 338.2 326.7 338.2C324.7 338.2 321.8 339.8 320.2 342.6L316.5 348.9L316.3 349.1C313.6 352.3 310.5 354.8 308.9 354.8C308.1 354.8 307.6 354.2 308.5 352.7L312.3 346.1C313.6 343.8 313 342.5 311.8 341L309.7 338.5C309.2 337.8 309.2 337 309.9 336.3L307.9 334.2C305.8 336.1 305.6 338.3 306.9 340L307.2 340.4C305.5 342.8 303.3 346 300.8 348.9C300.9 349 301 349.1 301.1 349.2C298 352.8 295.3 355.1 292.4 356.4L297.2 348.2H293.4L293 348.9C291 352.4 288.7 354.9 285.8 354.9C283.2 354.9 282.8 352.3 285 348.5L286.1 346.6C286.8 346.7 287.5 346.8 288.2 346.8C301.6 346.8 308.1 328.8 296.3 328.8C294.2 328.8 291.8 330.3 290.1 333.2L284.2 343.3C282 342.1 280.8 340 280.8 337.9C280.8 336.2 281.6 334.4 283.2 333.1L282 330.9C279.3 332.8 278.1 335.4 278.1 337.9C278.1 340.9 279.8 343.8 282.9 345.4L281.8 347.4C279.1 352 279.6 357.1 285 357.1C286.6 357.1 287.9 356.6 289.1 355.9L288.1 357.6C283 359.2 279.8 361.2 279.8 364.1C279.8 367.7 285.4 368.5 288.1 363.8L291 358.8C294.9 357.6 298.8 354.9 302.9 350.1C302.8 350 302.8 349.9 302.7 349.7C304.4 347.7 305.8 345.8 308.7 342L309.2 342.6C309.7 343.2 309.9 344 309.4 344.7L305.4 351.6C303.8 354.4 304.9 357 308 357C309.9 357 312.3 355.8 314.4 354C314.4 355.7 315.5 357 317.7 357C319.2 357 321.1 356 322.9 354.5C323.1 356 324.2 357 326.2 357C328 357 330 355.9 331.9 354.2L330.5 356.6H334.3L340.1 346.5C345.9 339.3 348.5 340.2 346.8 343L341.9 351.5C340.3 354.3 341.4 356.9 344.5 356.9C346.5 356.9 348.3 355.5 350.5 353.6C350.3 355.5 351.5 356.9 353.8 356.9C355.3 356.9 357.2 355.9 359 354.4C359.2 355.9 360.3 356.9 362.3 356.9C365.4 356.9 369 353.6 372.1 349.9C371.6 349.6 371 349 370.5 348.8ZM258.2 343.5C260.4 339.8 264.2 340.4 262 344.3L261.5 345.2C259.7 348.3 257.2 348.2 255.8 347.7L258.2 343.5ZM255.2 357.1C259.5 357.1 263.7 353.8 266.9 350.1C266.6 349.6 266 349 265.5 348.8L265.2 349.1C262.5 352.3 259 354.8 256.3 354.8C254 354.8 252.6 353.3 254.3 350.3L254.7 349.6C257.1 350.6 261.7 350.1 264.5 345.2L265 344.3C267 340.8 265.1 338.2 262 338.2C259 338.2 256.5 339.8 254.9 342.6L251.2 348.9C251.2 348.9 251.1 348.9 251.1 348.8L250.8 349.1C248.1 352.3 245.4 354.8 243.8 354.8C243 354.8 242.5 354.2 243.4 352.7L248.8 343.1C250.4 340.2 248.9 338.2 246.8 338.2C245.2 338.2 243.4 339.1 241.5 341.1L247.5 330.6H243.7L233 349.1C232.9 349 232.7 348.9 232.6 348.8L232.3 349.1C229.6 352.3 226.9 354.8 225.3 354.8C224.5 354.8 224 354.2 224.9 352.7L233 338.6H236.1L237.2 336.8H234.1L237.7 330.6H233.9L230.3 336.8H226.9L225.8 338.6H229.2L221.6 351.8C220 354.6 221.1 357.2 224.2 357.2C226.1 357.2 228.1 356 230.1 354.2L228.6 356.8H232.4L238.1 346.8C243.9 339.5 246.5 340.4 244.9 343.2L240 351.7C238.4 354.5 239.5 357.1 242.6 357.1C244.9 357.1 247.4 355.3 249.9 352.9C250.1 355.3 252.1 357.1 255.2 357.1ZM127.7 343.5C129.9 339.8 133.7 340.4 131.5 344.3L131 345.2C129.2 348.3 126.7 348.2 125.3 347.7L127.7 343.5ZM150.8 352.7L156.1 343.5C158.1 340 162.2 340.9 160.3 344.3L157.4 349.5C155.1 353.1 152.9 354.8 151.3 354.8C150.4 354.7 149.9 354.2 150.8 352.7ZM204.8 343.5C207 339.8 210.8 340.4 208.6 344.3L208.1 345.2C206.3 348.3 203.9 348.2 202.4 347.7L204.8 343.5ZM147 353C146.4 355.2 147.6 357.1 150.1 357.1C151.6 357.1 153.5 356.1 155.3 354.6C155.5 356.1 156.6 357.1 158.6 357.1C160.6 357.1 162.8 355.7 165 353.8C164.6 355.8 165.5 357.1 167.4 357.1C169.5 357.1 171.8 355.2 173.6 353.5C173.2 355.5 174.4 357.1 176.8 357.1C179.9 357.1 183.5 353.8 186.6 350.1C186.6 350.1 186.5 350 186.5 349.9C188.6 347.5 190.4 344.9 191.7 343.1C190.2 347 191 354.1 187.4 354.1C186.1 354.1 185.6 352.7 185.6 352.7L183.2 353.9C183.2 353.9 183.9 357 187.3 357C187.7 357 188 357 188.4 356.9H188.5C191.3 356.5 194 354.8 196.4 352.7C196.5 355.2 198.4 357 201.5 357C205.8 357 210 353.7 213.2 350C212.9 349.5 212.3 348.9 211.8 348.7L211.5 349C208.8 352.2 205.3 354.7 202.6 354.7C200.3 354.7 198.9 353.2 200.6 350.2L201 349.5C203.4 350.5 208 350 210.8 345.1L211.3 344.2C213.3 340.7 211.4 338.1 208.3 338.1C205.2 338.1 202.8 339.7 201.2 342.5L197.5 348.8H197.4L197.1 349.1C195.8 350.7 194.2 352 192.6 353.2C193.8 349.6 193.5 344.1 195.9 339.2L193.1 337.7C191.5 339.8 188.1 344.8 184.7 348.8L184.8 348.9L184.7 349.1C182 352.3 179.3 354.8 177.7 354.8C176.9 354.8 176.4 354.2 177.3 352.7L185.4 338.6H181.6L174.9 350.3C172 352.9 169.8 354.4 169.1 354C168.2 353.6 169.1 352.2 169.6 351.4L177 338.5H173.2L167.2 348.9C167.1 348.8 167 348.8 166.9 348.7L166.6 349C163.9 352.2 161.2 354.7 159.6 354.7C158.8 354.7 158.3 354.1 159.2 352.6L165.3 341.9H163.2C163.3 340.3 161.7 338.1 159.2 338.1C157.2 338.1 154.3 339.7 152.7 342.5L148.9 349.1C148.7 349 148.5 348.8 148.3 348.7L148 349C145.3 352.2 142.1 354.7 139.5 354.7C137.2 354.7 135.8 353.2 137.5 350.2L141.4 343.4C143.6 339.7 147.4 340.3 145.2 344.2L144.7 345.1H147.8L148.3 344.2C150.3 340.7 148.4 338.1 145.3 338.1C142.2 338.1 140.2 339.7 138.6 342.5L134.8 348.9C134.7 348.8 134.6 348.8 134.5 348.7L134.2 349C131.5 352.2 128.3 354.7 125.6 354.7C123.3 354.7 121.9 353.2 123.6 350.2L124 349.5C126.4 350.5 131 350 133.8 345.1L134.3 344.2C136.3 340.7 134.4 338.1 131.3 338.1C128.2 338.1 125.8 339.7 124.2 342.5L120.2 349.3C117.8 353.3 119.9 357 124.3 357C127.6 357 130.3 355 133.1 352.4C133 355 135 357 138.2 357C141.6 357.1 144.3 355.3 147 353ZM110.1 339L113.2 333.8C116 329 119.5 331.8 117.6 335.4C116.1 338.1 114 339 110.1 339ZM106 356.3C103.7 356.3 102 355.8 100.6 355C101.3 354.2 101.9 353.3 102.5 352.3L108.9 341.3L109.9 341.4C118.7 343.2 115.2 356.3 106 356.3ZM115.4 340.8C123 338.2 123.6 328.7 116.1 328.7C114 328.7 111.6 330.2 109.9 333.1L99.7 350.7C99.3 351.5 98.8 352.2 98.2 352.8C95.6 349.2 96.3 343.8 100 341.5L98.5 339.6C90.6 344.6 92.9 359.2 106.1 359.2C117.4 359.2 122.6 345.6 115.4 340.8Z" fill="white"/>
<mask id="mask0_33515_805" style="mask-type:alpha" maskUnits="userSpaceOnUse" x="0" y="0" width="458" height="485">
<path d="M0 0H458V485H0V0Z" fill="#D9D9D9"/>
</mask>
<g mask="url(#mask0_33515_805)">
</g>
</g>
<defs>
<clipPath id="clip0_33515_805">
<rect width="458" height="485" fill="white"/>
</clipPath>
</defs>
</svg>
